<svg width="24" height="24" viewBox="0 0 24 24" fill="none" xmlns="http://www.w3.org/2000/svg">
<path d="M7 15H9V9H7V15ZM8 7C8.28333 7 8.521 6.904 8.713 6.712C8.905 6.52 9.00067 6.28267 9 6C8.99933 5.71733 8.90333 5.48 8.712 5.288C8.52067 5.096 8.28333 5 8 5C7.71667 5 7.47933 5.096 7.288 5.288C7.09667 5.48 7.00067 5.71733 7 6C6.99933 6.28267 7.09533 6.52033 7.288 6.713C7.48067 6.90567 7.718 7.00133 8 7ZM8 20C5.68333 19.4167 3.77067 18.0873 2.262 16.012C0.753334 13.9367 -0.000666225 11.6327 4.41696e-07 9.1V3L8 0L16 3V9.1C16 11.6333 15.246 13.9377 13.738 16.013C12.23 18.0883 10.3173 19.4173 8 20ZM8 17.9C9.73333 17.35 11.1667 16.25 12.3 14.6C13.4333 12.95 14 11.1167 14 9.1V4.375L8 2.125L2 4.375V9.1C2 11.1167 2.56667 12.95 3.7 14.6C4.83333 16.25 6.26667 17.35 8 17.9Z" fill="#474747"/>
</svg>
