<svg width="24" height="24" viewBox="3 0 24 24" fill="none" xmlns="http://www.w3.org/2000/svg">
<g filter="url(#filter0_d_133_1189)">
<path d="M16.44 2.82C15.7564 2.03962 15.3797 1.03743 15.38 0H12.29V12.4C12.2662 13.071 11.9829 13.7066 11.4998 14.1729C11.0167 14.6393 10.3714 14.8999 9.7 14.9C8.28 14.9 7.1 13.74 7.1 12.3C7.1 10.58 8.76 9.29 10.47 9.82V6.66C7.02 6.2 4 8.88 4 12.3C4 15.63 6.76 18 9.69 18C12.83 18 15.38 15.45 15.38 12.3V6.01C16.633 6.90985 18.1374 7.39265 19.68 7.39V4.3C19.68 4.3 17.8 4.39 16.44 2.82Z" fill="#474747"/>
</g>
<defs>
<filter id="filter0_d_133_1189" x="0" y="0" width="23.6799" height="26" filterUnits="userSpaceOnUse" color-interpolation-filters="sRGB">
<feFlood flood-opacity="0" result="BackgroundImageFix"/>
<feColorMatrix in="SourceAlpha" type="matrix" values="0 0 0 0 0 0 0 0 0 0 0 0 0 0 0 0 0 0 127 0" result="hardAlpha"/>
<feOffset dy="4"/>
<feGaussianBlur stdDeviation="2"/>
<feComposite in2="hardAlpha" operator="out"/>
<feColorMatrix type="matrix" values="0 0 0 0 0 0 0 0 0 0 0 0 0 0 0 0 0 0 0.25 0"/>
<feBlend mode="normal" in2="BackgroundImageFix" result="effect1_dropShadow_133_1189"/>
<feBlend mode="normal" in="SourceGraphic" in2="effect1_dropShadow_133_1189" result="shape"/>
</filter>
</defs>
</svg>
